<svg width="68" height="68" viewBox="0 0 68 68" fill="none" xmlns="http://www.w3.org/2000/svg">
<rect width="56" height="56" rx="28" fill="#F9D15C"/>
<g clip-path="url(#clip0_4144_40)">
<path d="M39.8906 63.0233C41.884 63.0233 43.5 61.4073 43.5 59.4139C43.5 57.4205 41.884 55.8046 39.8906 55.8046C37.8972 55.8046 36.2812 57.4205 36.2812 59.4139C36.2812 61.4073 37.8972 63.0233 39.8906 63.0233Z" fill="#222222"/>
<path d="M67.4127 28.9382C60.2235 21.2248 50.4884 16.9767 39.9996 16.9766C29.5116 16.9767 19.7765 21.2248 12.5872 28.9382C11.7636 29.822 11.8123 31.2062 12.696 32.0299C13.5799 32.8535 14.964 32.805 15.7877 31.9211C22.1402 25.1053 30.7388 21.3517 40.0004 21.3516C49.2611 21.3517 57.8597 25.1053 64.2122 31.9211C64.643 32.3833 65.2272 32.6172 65.8129 32.6172C66.347 32.6172 66.8824 32.4227 67.3039 32.0299C68.1877 31.2061 68.2364 29.822 67.4127 28.9382Z" fill="#222222"/>
<path d="M59.3808 37.9719C54.0666 32.6176 47.1837 29.669 40 29.6692C32.8146 29.6693 25.9316 32.618 20.6191 37.9721C19.7681 38.8298 19.7735 40.2148 20.6311 41.0657C21.4887 41.9166 22.8737 41.9113 23.7247 41.0537C28.2096 36.5337 33.9896 34.0443 40 34.0442C46.0088 34.044 51.7888 36.5334 56.2754 41.0539C56.703 41.4847 57.2654 41.7004 57.8281 41.7004C58.385 41.7004 58.9424 41.4889 59.3692 41.0655C60.2265 40.2144 60.2318 38.8294 59.3808 37.9719Z" fill="#222222"/>
<path d="M50.6259 47.0318C47.78 44.2122 43.7006 42.4608 39.9794 42.4608C39.979 42.4608 39.9782 42.4608 39.9778 42.4608H39.8202C39.8195 42.4608 39.8192 42.4608 39.8186 42.4608C36.0973 42.4608 32.0176 44.2123 29.1718 47.0318C28.3136 47.8821 28.3072 49.2671 29.1574 50.1254C29.5852 50.5571 30.1483 50.7733 30.7115 50.7733C31.2678 50.7733 31.8244 50.5623 32.2509 50.1398C34.2769 48.1326 37.2472 46.8358 39.8188 46.8358C39.8191 46.8358 39.8195 46.8358 39.8199 46.8358H39.9781C39.9786 46.8358 39.9787 46.8358 39.9791 46.8358C42.5504 46.8358 45.5209 48.1327 47.5467 50.1398C48.4048 50.99 49.7901 50.9839 50.6402 50.1254C51.4906 49.2672 51.4842 47.8821 50.6259 47.0318Z" fill="#222222"/>
</g>
<defs>
<clipPath id="clip0_4144_40">
<rect width="56" height="56" fill="white" transform="translate(12 12)"/>
</clipPath>
</defs>
</svg>
